<?xml version="1.0" encoding="UTF-8"?>
<svg width="21px" height="24px" viewBox="0 0 21 24" version="1.1" xmlns="http://www.w3.org/2000/svg" xmlns:xlink="http://www.w3.org/1999/xlink">
    <!-- Generator: Sketch 47.1 (45422) - http://www.bohemiancoding.com/sketch -->
    <title>platform-apple</title>
    <desc>Created with Sketch.</desc>
    <defs></defs>
    <g id="Page-1" stroke="none" stroke-width="1" fill="none" fill-rule="evenodd">
        <g id="uProxy-download-desktop" transform="translate(-152.000000, -710.000000)" fill="#FFFFFF">
            <g id="platform-apple" transform="translate(150.000000, 710.000000)">
                <rect id="Rectangle-4" fill-opacity="0" x="0" y="0" width="24" height="24"></rect>
                <path d="M21.7919944,18.7032866 C21.4290424,19.5417798 20.9994258,20.3136083 20.501663,21.0232165 C19.823165,21.9905946 19.2676263,22.660204 18.8394911,23.0320446 C18.1758074,23.6423966 17.4647178,23.9549797 16.7032593,23.9727569 C16.1566092,23.9727569 15.4973698,23.8172061 14.7299856,23.5016601 C13.960083,23.1875955 13.2525488,23.0320446 12.6056054,23.0320446 C11.9271074,23.0320446 11.1994257,23.1875955 10.4210788,23.5016601 C9.64154682,23.8172061 9.0135658,23.9816456 8.53343217,23.9979414 C7.80323201,24.0290515 7.07540216,23.7075798 6.3489056,23.0320446 C5.88521591,22.6276124 5.30523344,21.9343 4.61043962,20.9521075 C3.86498067,19.9032503 3.25211031,18.6869908 2.77197667,17.300366 C2.25776999,15.8026335 2,14.352307 2,12.9482013 C2,11.3398054 2.34754505,9.95258809 3.04367216,8.7901047 C3.59076674,7.85635515 4.31859659,7.11978482 5.22953202,6.57906042 C6.14046745,6.03833602 7.124734,5.76278879 8.18470197,5.74515969 C8.76468444,5.74515969 9.52525404,5.92456168 10.4704107,6.27714362 C11.4129007,6.6309107 12.0180676,6.81031269 12.2833929,6.81031269 C12.4817573,6.81031269 13.1540333,6.60054125 14.2937025,6.18233167 C15.3714477,5.79449154 16.2810499,5.6339038 17.0262125,5.69716115 C19.0454108,5.86011918 20.5624019,6.65609513 21.5712603,8.09012586 C19.765389,9.18431501 18.8720827,10.7168613 18.8898599,12.6828759 C18.9061557,14.2142371 19.4616945,15.4885689 20.5535133,16.5003902 C21.0483132,16.9700056 21.6008891,17.3329576 22.2156853,17.5907276 C22.082356,17.9773826 21.9416195,18.3477418 21.7919944,18.7032866 L21.7919944,18.7032866 Z M17.1610233,0.480133637 C17.1610233,1.68040847 16.722518,2.80110053 15.8484703,3.83840251 C14.7936874,5.07155042 13.5178741,5.78412148 12.1343604,5.67168043 C12.1167313,5.52768479 12.1065094,5.37613381 12.1065094,5.21687936 C12.1065094,4.06461789 12.6081238,2.83146998 13.4989117,1.82320416 C13.943639,1.31270107 14.5092516,0.888225007 15.1951568,0.549613018 C15.8795805,0.216052729 16.5269684,0.0315842306 17.1358388,0 C17.1536161,0.16045441 17.1610233,0.320923634 17.1610233,0.480118822 L17.1610233,0.480133637 Z" id="Shape" fill-rule="nonzero"></path>
            </g>
        </g>
    </g>
</svg>