<?xml version="1.0" encoding="UTF-8"?>
<svg width="24px" height="24px" viewBox="0 0 24 24" version="1.1" xmlns="http://www.w3.org/2000/svg" xmlns:xlink="http://www.w3.org/1999/xlink">
    <!-- Generator: Sketch 47.1 (45422) - http://www.bohemiancoding.com/sketch -->
    <title>platform-linux</title>
    <desc>Created with Sketch.</desc>
    <defs></defs>
    <g id="Page-1" stroke="none" stroke-width="1" fill="none" fill-rule="evenodd">
        <g id="uProxy-download-desktop" transform="translate(-398.000000, -709.000000)" fill="#FFFFFF">
            <g id="platform-linux" transform="translate(398.000000, 709.000000)">
                <rect id="Rectangle-6" fill-opacity="0" x="0" y="0" width="24" height="24"></rect>
                <path d="M15.1484522,7.62120953 C14.6433032,7.95278355 14.1266898,8.26858454 13.6152115,8.59130751 C13.3447239,8.74177539 13.048322,8.86239934 12.8090032,9.04917923 C12.3313209,9.42171773 11.9022428,9.39607237 11.4345918,9.03420052 C11.1939594,8.84798801 10.9001848,8.72373286 10.6304137,8.5713359 C10.1176218,8.25008811 9.59897824,7.93689705 9.09347096,7.60577693 C8.52168527,7.23130935 8.55619781,6.77184898 9.19497845,6.50302665 C11.1594468,5.676815 13.1290503,5.73627591 15.0803824,6.54489893 C15.6731862,6.79045888 15.6933682,7.26364973 15.1484522,7.62120953 M23.807996,16.3585594 C22.6912943,13.8425912 21.1674878,11.5668496 19.2169916,9.56878136 C18.5655524,8.90154822 18.1720616,8.15726554 17.9272494,7.31210357 C17.8111726,6.91176368 17.7280559,6.50245927 17.6412372,6.09508394 C17.4166071,5.04022012 17.2864386,3.96186697 16.81831,2.96669101 C15.9277908,1.07347372 14.3883402,0.0865814429 12.1976893,0 C10.0150395,0.0608226126 8.40393659,0.976906477 7.45143811,2.875911 C7.19348968,3.3901798 7.01806086,3.93247694 6.89672956,4.48952583 C6.69526706,5.41491465 6.51159822,6.34393466 6.29831308,7.26682703 C6.11679381,8.05241462 5.76080109,8.72849881 5.14447153,9.32968948 C3.214038,11.2125805 1.67124364,13.3646344 0.494234499,15.7473829 C0.325493232,16.0889427 0.153766451,16.4362898 0.0502288164,16.7981616 C-0.177864474,17.5953237 0.397264995,18.1445428 1.24121017,17.9577629 C1.76415285,17.8420184 2.29318598,17.7377348 2.80048456,17.5750116 C3.28294367,17.4202317 3.47831572,17.5143025 3.62472534,18.0108692 C4.38173234,20.5794898 6.08228127,22.3955441 8.6826642,23.3882236 C13.6297808,25.276675 19.4003022,22.6101254 20.6477695,17.9034084 C20.7330357,17.5818201 20.852098,17.4641465 21.2200328,17.5756925 C21.7686509,17.7420469 22.3329131,17.8656212 22.8961005,17.9829544 C23.4865158,18.1060748 23.9099812,17.8038908 23.9895153,17.2371965 C24.0334621,16.9237785 23.9327905,16.6400909 23.807996,16.3585594" id="Fill-1-Copy"></path>
            </g>
        </g>
    </g>
</svg>